<svg width="16" height="16" viewBox="0 0 16 16" fill="none" xmlns="http://www.w3.org/2000/svg">
<g clip-path="url(#clip0_250_465)">
<path d="M15.4815 2.71661H0.518543C0.232176 2.71661 0 2.94882 0 3.23523V13.7648C0 14.0512 0.232176 14.2834 0.518543 14.2834H15.4814C15.7678 14.2834 16 14.0513 16 13.7648V3.23523C16 2.94882 15.7679 2.71661 15.4815 2.71661ZM14.1585 11.6142C14.378 11.8048 14.4016 12.1373 14.211 12.3569C14.0204 12.5764 13.688 12.6001 13.4683 12.4094C13.3322 12.2913 9.89938 9.31191 9.7671 9.1971L8.34509 10.4313C8.24611 10.5172 8.12305 10.5602 8 10.5602C7.87695 10.5602 7.75389 10.5172 7.65491 10.4313L6.2329 9.1971C6.10058 9.31194 2.66775 12.2913 2.53171 12.4094C2.3121 12.6 1.97958 12.5765 1.789 12.3569C1.59841 12.1373 1.62193 11.8048 1.84154 11.6142L5.42971 8.49998L1.84154 5.38581C1.62196 5.19522 1.59845 4.86274 1.789 4.64313C1.97962 4.42355 2.3121 4.39997 2.53171 4.59062C2.70966 4.74505 7.67692 9.05622 8 9.33662C8.2798 9.09377 13.2755 4.758 13.4683 4.59062C13.6879 4.4 14.0204 4.42348 14.211 4.64313C14.4016 4.86274 14.3781 5.19526 14.1585 5.38581L10.5703 8.49998L14.1585 11.6142Z" fill="#666666"/>
</g>
<defs>
<clipPath id="clip0_250_465">
<rect width="16" height="16" fill="white" transform="translate(0 0.5)"/>
</clipPath>
</defs>
</svg>
