<svg width="16" height="17" viewBox="0 0 16 17" fill="none" xmlns="http://www.w3.org/2000/svg">
<g clip-path="url(#clip0_250_471)">
<path d="M15.7455 3.39374C15.39 3.55138 15.021 3.67574 14.6423 3.76578C15.0596 3.36928 15.3733 2.87335 15.5503 2.31981C15.6008 2.16178 15.4292 2.02513 15.2865 2.10974C14.7597 2.42221 14.1922 2.65662 13.5999 2.80653C13.5655 2.81523 13.5301 2.81964 13.4945 2.81964C13.3866 2.81964 13.2817 2.77958 13.1992 2.70686C12.5689 2.1514 11.7584 1.84549 10.9168 1.84549C10.5526 1.84549 10.185 1.90225 9.82398 2.01421C8.70549 2.36112 7.84248 3.28374 7.57172 4.42204C7.47014 4.849 7.44264 5.27635 7.48992 5.69219C7.49534 5.73998 7.47275 5.77333 7.45883 5.78897C7.43437 5.8164 7.39969 5.83212 7.36368 5.83212C7.35966 5.83212 7.35553 5.83192 7.35143 5.83153C4.90311 5.60407 2.69532 4.42453 1.13474 2.51025C1.05516 2.41261 0.902552 2.42459 0.839123 2.53339C0.533521 3.05768 0.372021 3.65733 0.372021 4.26752C0.372021 5.20266 0.747723 6.08393 1.40032 6.72638C1.12588 6.66131 0.860266 6.55883 0.61353 6.42179C0.49416 6.35547 0.347289 6.44071 0.345612 6.57724C0.328526 7.96645 1.14188 9.20259 2.3603 9.75922C2.33577 9.7598 2.31123 9.76008 2.28665 9.76008C2.09352 9.76008 1.89796 9.74143 1.70549 9.70464C1.57106 9.67898 1.45813 9.8065 1.49987 9.93683C1.89535 11.1715 2.95844 12.0816 4.23062 12.2883C3.17479 12.997 1.94524 13.3709 0.66553 13.3709L0.266578 13.3707C0.143659 13.3707 0.0396982 13.4508 0.00837342 13.5698C-0.0224832 13.6871 0.0343538 13.8108 0.139173 13.8718C1.5812 14.711 3.22604 15.1545 4.89659 15.1545C6.35887 15.1545 7.7267 14.8643 8.96214 14.2921C10.0947 13.7674 11.0955 13.0175 11.9368 12.063C12.7205 11.1739 13.3334 10.1475 13.7583 9.01242C14.1633 7.93041 14.3774 6.77588 14.3774 5.67362V5.62112C14.3773 5.44413 14.4574 5.2776 14.597 5.16423C15.127 4.73396 15.5885 4.22746 15.9686 3.65881C16.069 3.50867 15.9107 3.32048 15.7455 3.39374Z" fill="#666666"/>
</g>
<defs>
<clipPath id="clip0_250_471">
<rect width="16" height="16" fill="white" transform="translate(0 0.5)"/>
</clipPath>
</defs>
</svg>
