<svg xmlns="http://www.w3.org/2000/svg" width="26" height="26" fill="none"><g fill="#FF4040" clip-path="url(#a)"><path d="M20.213 23.69c0-1.435-.002-2.826 0-4.217.004-1.549.008-3.097.026-4.646.007-.536.294-.92.756-1.084.446-.16.97-.055 1.238.342.163.243.267.577.268.869.01 2.861-.006 5.723-.014 8.584 0 .394 0 .785-.002 1.179-.008.843-.448 1.279-1.297 1.279H2.094c-.314 0-.628.007-.942-.003-.665-.019-1.112-.456-1.147-1.119-.005-.089-.002-.179-.002-.27C0 18.022.003 11.436 0 4.849c0-.357.034-.695.286-.974.224-.246.495-.378.829-.378 3.385.006 6.768.01 10.153.025.695.003 1.197.508 1.193 1.152-.004.658-.517 1.13-1.238 1.13-2.834-.005-5.67-.013-8.505-.02h-.414V23.69h17.908l.001.002Z"/><path d="M21.88 2.31h-4.233c-.46 0-.918.012-1.378.007-.722-.006-1.23-.487-1.222-1.15.006-.662.482-1.125 1.203-1.13C19.096.02 21.943.008 24.788 0c.7-.001 1.177.45 1.181 1.15.02 2.962.028 5.924.03 8.886 0 .65-.506 1.133-1.134 1.13-.652-.004-1.134-.496-1.14-1.204-.014-1.885-.015-3.77-.022-5.656V3.84c-.206.204-.339.33-.468.461-3.331 3.376-6.662 6.75-9.989 10.13-.31.317-.66.508-1.107.433-.442-.076-.76-.324-.897-.763-.144-.459-.039-.861.299-1.205l3.732-3.782c2.132-2.163 4.265-4.328 6.403-6.487.084-.083.217-.118.326-.176l-.124-.143.002.001Z"/></g><defs><clipPath id="a"><path fill="#fff" d="M0 0h26v26H0z"/></clipPath></defs></svg>
