<?xml version="1.0" encoding="UTF-8" standalone="no"?>
<svg
   xmlns:dc="http://purl.org/dc/elements/1.1/"
   xmlns:cc="http://creativecommons.org/ns#"
   xmlns:rdf="http://www.w3.org/1999/02/22-rdf-syntax-ns#"
   xmlns:svg="http://www.w3.org/2000/svg"
   xmlns="http://www.w3.org/2000/svg"
   viewBox="0 0 170.66667 170.66667"
   height="170.66667"
   width="170.66667"
   xml:space="preserve"
   id="svg2"
   version="1.1"><metadata
     id="metadata8"><rdf:RDF><cc:Work
         rdf:about=""><dc:format>image/svg+xml</dc:format><dc:type
           rdf:resource="http://purl.org/dc/dcmitype/StillImage" /></cc:Work></rdf:RDF></metadata><defs
     id="defs6" /><g
     transform="matrix(1.3333333,0,0,-1.3333333,0,170.66667)"
     id="g10"><g
       id="g12"><path
         id="path14"
         style="fill:#ff4040;fill-opacity:1;fill-rule:nonzero;stroke:none"
         d="M 0,128 H 128 V 0 H 0 Z" /></g><g
       transform="matrix(1,0,0,-1,27,113)"
       id="g16"><path
         id="path18"
         style="fill:#b42f2f;fill-opacity:1;fill-rule:nonzero;stroke:none"
         d="M 74.624382,59.981892 C 71.494164,68.263908 65.734566,74.663643 57.470055,78.051743 V 59.981892 l 9.892219,-8.910183 -9.892219,-8.783226 V 29.865463 C 66.485817,29.238037 72.746246,22.587326 72.746246,14.430794 72.746246,3.764557 62.604347,0 56.844749,0 55.592659,0 54.214626,8e-6 52.212761,0.501953 v 0.50193 c 0.750515,0 1.876652,-0.12548 2.253014,-0.12548 4.007415,0 7.012432,1.882271 7.012432,5.521339 0,2.760674 -2.254494,5.52134 -6.260434,5.52134 -9.892223,0 -21.536632,-8.031037 -34.18271,-8.031037 -11.268782,0 -19.031723,8.407501 -19.031723,16.940491 0,8.407501 4.883137,11.168167 10.016693,13.050445 l 0.125214,-0.501937 c -1.627714,-1.003884 -2.754596,-2.760666 -2.754596,-5.52134 0,-3.764557 3.505849,-6.901687 7.888152,-6.901687 10.642738,0 27.796331,8.909446 38.439066,8.909446 h 1.001671 v 12.548516 l -9.891491,8.65773 9.891491,8.910183 v 18.320827 c -4.131886,1.505081 -8.388985,2.13398 -12.771286,2.13398 -16.527548,0 -27.045079,-10.040283 -27.045079,-26.729065 0,-4.015522 0.500834,-7.905567 1.627713,-11.67012 l 8.263774,-3.639061 V 75.291077 L 43.572624,67.888191 V 30.116432 L 18.906515,41.159119 c 2.504173,-7.278138 7.637728,-12.5485 13.772951,-15.560143 L 32.55426,25.222511 C 16.026714,28.86158 0,41.410091 0,60.232857 0,81.94178 18.280468,97 39.566681,97 62.103508,97 74.874794,81.941788 75,59.981892 Z" /></g><g
       transform="translate(11,45.783813)"
       id="g20"><path
         id="path22"
         style="fill:#ffffff;fill-opacity:1;fill-rule:nonzero;stroke:none"
         d="m 8.451108,11.667538 c -0.18444,-0.322817 -0.414989,-0.59952 -0.645537,-0.830103 -0.368878,1.1068 -0.599428,2.305835 -0.783867,3.458753 -0.414988,2.167485 -0.645537,4.381087 -0.645537,6.594689 -0.04611,2.121368 0.138329,4.288852 0.968306,6.225752 0.507207,1.1068 1.198854,2.121368 2.074941,2.951467 0,-4.381086 0,-8.762169 0,-13.143255 0,-0.922335 0,-1.798552 -0.13833,-2.720886 C 9.142756,13.327738 8.912206,12.451521 8.451108,11.667538 Z M 26.157274,10.606853 C 26.111164,8.669952 25.465626,6.686934 24.266771,5.165081 23.067917,3.597115 21.315742,2.490311 19.425241,2.075264 c -0.09222,0 -0.18444,-0.046116 -0.276659,-0.046116 0,1.890782 0,3.735451 0,5.626236 l 7.008692,3.550985 c 0,-0.184467 0,-0.415048 0,-0.599516 z m -7.008692,1.890784 5.902056,2.997585 c 0.461098,-0.922333 0.783867,-1.890785 0.968306,-2.859236 L 19.148582,9.131119 Z m 0,1.475735 c 0,2.259717 0,4.565553 0,6.825269 1.798283,-0.691749 3.412125,-1.844665 4.610981,-3.3204 0.230549,-0.276701 0.41499,-0.5534 0.599429,-0.830101 z M 17.811399,1.890797 c -1.613843,0 -3.227686,0.461166 -4.657092,1.337387 -1.844391,1.1068 -3.273795,2.859234 -4.242101,4.796135 -0.09222,0.184465 -0.23055,0.41505 -0.322769,0.645633 0.461097,0.13835 0.876086,0.276699 1.337183,0.461167 1.291075,0.507282 2.48993,1.245149 3.458236,2.305834 0.737757,0.737867 1.291074,1.614084 1.613843,2.628652 0.322768,0.968451 0.36888,2.029135 0.36888,3.089819 v 0.737867 l 2.44382,2.444186 c 0,-6.133522 0,-12.267042 0,-18.44668 z m -2.44382,30.713718 c 0.09222,0.04612 0.230548,0.04612 0.322768,0.09223 0,0 0.04611,0 0.09222,0 1.152745,-0.876215 2.397708,-1.660198 3.642674,-2.398066 1.383294,-0.830101 2.812697,-1.567968 4.288212,-2.259718 l -8.345874,-8.254888 v 3.689337 9.131103 z m 7.838665,-6.917503 7.654228,7.563137 -0.922196,0.968452 -1.521621,-1.521854 c -1.198857,0.41505 -2.305493,0.922336 -3.412127,1.475738 -1.659954,0.876213 -3.227686,1.890782 -4.703201,3.043702 l -4.51876,-3.597104 C 11.402136,33.111797 7.160033,30.944313 4.255116,27.577793 1.672967,24.58021 0.151343,20.752527 0.013014,16.878723 -0.125316,13.419971 0.84299,9.961218 2.733492,7.148098 4.670104,4.288864 7.528911,2.12138 10.802708,1.060696 13.384856,0.184479 16.197557,1.5e-5 18.871925,0.461182 c 2.720478,0.461166 5.302626,1.614078 7.469786,3.27428 2.397709,1.798552 4.288212,4.334973 5.164297,7.194206 0.968308,3.135937 0.645538,6.733036 -1.060524,9.546156 -1.567732,2.628653 -4.242103,4.565554 -7.23924,5.211188 z" /></g><g
       transform="translate(11,59.296021)"
       id="g24"><path
         id="path26"
         style="fill:#ffffff;fill-opacity:1;fill-rule:nonzero;stroke:none"
         d="m 36.052864,-7.101974 6.270935,-5.257302 5.809834,4.565552 c 0.04611,-0.322817 0.09222,-0.599518 0.138328,-0.922337 0.184441,-0.968448 0.645539,-1.936897 1.383293,-2.62865 0.553318,-0.507283 1.291077,-0.830101 2.028832,-0.922333 l 5.53318,3.78157 -0.876087,1.152914 -1.706062,-1.383501 c -0.368878,0.230584 -0.645535,0.599522 -0.876084,1.014571 -0.322769,0.645635 -0.368881,1.383499 -0.368881,2.121366 V -3.643223 7.37867 l 1.982719,1.52185 -0.691646,0.876216 -1.613842,-1.106801 -3.043247,2.674771 -4.33432,-4.012156 2.397708,-2.121368 v -9.453921 -1.429619 c 0,-0.276701 0,-0.5534 0,-0.830101 l -2.213272,-1.61408 -2.858806,2.767 V 5.718468 c 0,0.599518 -0.04611,1.152918 -0.184437,1.706318 -0.138332,0.599516 -0.368881,1.1068 -0.691647,1.614082 -0.414989,0.599518 -0.922195,1.106802 -1.521625,1.567968 -0.368878,0.276699 -0.829979,0.461168 -1.244969,0.645635 L 33.42461,7.424786 33.885704,6.77915 c 0.322769,0.230583 0.645538,0.46117 1.060524,0.59952 0.138332,0.046116 0.276661,0.092233 0.414989,0.092233 0.32277,0.092232 0.645539,0.046116 0.9222,-0.092233 0.322765,-0.13835 0.599426,-0.322819 0.783867,-0.59952 0.184436,-0.276699 0.276653,-0.599514 0.368873,-0.922331 0.04611,-0.322819 0.04611,-0.645635 0.04611,-0.968452 V -5.902939 l -1.429405,-1.199035 z" /></g><g
       transform="translate(11,49.058105)"
       id="g28"><path
         id="path30"
         style="fill:#ffffff;fill-opacity:1;fill-rule:nonzero;stroke:none"
         d="M 70.433487,3.320406 68.450768,2.02914 66.883034,3.550991 v 13.927244 l -3.504349,4.196619 -6.178711,-4.196619 0.645538,-0.87622 1.752171,1.106803 1.567734,-1.983018 V 3.550991 l -2.904919,-1.983017 0.691647,-0.876217 1.521625,1.1068 4.426537,-3.966037 6.639816,4.611671 z m -10.743584,24.5802 3.919335,-4.473318 4.426536,3.8738 -3.965439,4.47332 z" /></g><g
       transform="translate(11,47.628479)"
       id="g32"><path
         id="path34"
         style="fill:#ffffff;fill-opacity:1;fill-rule:nonzero;stroke:none"
         d="M 80.787292,4.980618 V 34.818119 H 79.911209 L 72.395317,29.5147 v -0.645634 c 0.368881,-0.138351 0.69165,-0.276701 1.060524,-0.461166 0.322769,-0.138352 0.599426,-0.368935 0.829979,-0.645634 0.09222,-0.184467 0.184433,-0.41505 0.230545,-0.645634 0.09222,-0.230583 0.09222,-0.461168 0.09222,-0.691751 V 5.441784 L 71.51923,3.458767 72.16476,2.53643 73.916935,3.643232 78.804569,-0.553383 84.52219,3.458767 83.876652,4.334982 82.53947,3.228184 80.787288,4.980618 Z" /></g><g
       transform="translate(11,48.781372)"
       id="g36"><path
         id="path38"
         style="fill:#ffffff;fill-opacity:1;fill-rule:nonzero;stroke:none"
         d="m 93.227577,20.24527 4.887642,-4.427204 V 1.936939 l -4.887642,3.412636 z m -0.368873,0.322815 -5.579285,-3.458752 V 2.90539 l 6.639809,-4.519438 10.098042,5.949057 v 13.051025 l 1.98272,1.614082 -0.78386,1.014569 -1.70607,-1.383501 -15.907872,13.973358 v -8.254889 l 0.922188,0.138354 z" /></g></g></svg>